<?xml version="1.0" standalone="yes"?>
<svg xmlns="http://www.w3.org/2000/svg" width="560" height="560">
<path style="fill:#787878; stroke:none;" d="M0 0L0 260L1 260L1 249L2 249L2 260L3 260C3.06599 160.36 78.1858 69.1533 164 27.7415C192.852 13.8185 227.704 3.02142 260 3L260 2L249 2L249 1L260 1L236 0L183 0L0 0z"/>
<path style="fill:#303030; stroke:none;" d="M260 0L260 1L267 1L260 0z"/>
<path style="fill:#101010; stroke:none;" d="M253 1L253 2L307 2C291.815 -4.37207 269.103 1 253 1z"/>
<path style="fill:#303030; stroke:none;" d="M293 0L293 1L300 1L293 0z"/>
<path style="fill:#787878; stroke:none;" d="M300 0L300 1L311 1L311 2L300 2L300 3C327.572 3.01831 356.604 11.4414 382 21.6003C474.71 58.6856 556.142 155.289 557 259L558 259L558 249L559 249L559 260L560 260L560 0L300 0z"/>
<path style="fill:#303030; stroke:none;" d="M249 1L249 2L253 2L249 1M307 1L307 2L311 2L307 1M241 2L242 3L241 2z"/>
<path style="fill:#c3ced8; stroke:none;" d="M260 2.43903C218.918 8.85559 180.86 18.326 144 38.3087C61.6912 82.9299 11.334 170.354 2.17052 262C0.484552 278.862 2.6628 295.443 4.84105 312C20.6057 431.83 108.898 528.383 228 552.2C254.236 557.446 281.326 560.712 308 556.576C346.659 550.58 383.83 540.119 418 520.573C496.868 475.459 551.666 389.102 557.911 298C567.228 162.079 467.715 34.9489 335 8.39966C311.136 3.62561 284.368 -1.367 260 2.43903z"/>
<path style="fill:#303030; stroke:none;" d="M318 2L319 3L318 2M234 3L235 4L234 3M220 8L220 9L255 4C245.713 0.375061 229.723 6.74438 220 8M305 3L305 4L330 7L305 3M325 3L326 4L325 3M228 4L229 5L228 4z"/>
<path style="fill:#101010; stroke:none;" d="M250 4L251 5L250 4M309 4L310 5L309 4z"/>
<path style="fill:#303030; stroke:none;" d="M223 5L224 6L223 5z"/>
<path style="fill:#101010; stroke:none;" d="M242 5L243 6L242 5M317 5L318 6L317 5M235 6L236 7L235 6M324 6L325 7L324 6M229 7L230 8L229 7M330 7L331 8L330 7z"/>
<path style="fill:#303030; stroke:none;" d="M331 7L331 8L335 8L331 7z"/>
<path style="fill:#101010; stroke:none;" d="M224 8L225 9L224 8M335 8L336 9L335 8z"/>
<path style="fill:#303030; stroke:none;" d="M336 8L336 9L340 9L336 8M215 9L215 10L219 10L215 9z"/>
<path style="fill:#101010; stroke:none;" d="M219 9L220 10L219 9M340 9L341 10L340 9z"/>
<path style="fill:#303030; stroke:none;" d="M341 9L341 10L349 11L341 9M211 10L211 11L215 11L211 10z"/>
<path style="fill:#101010; stroke:none;" d="M344 10L345 11L344 10z"/>
<path style="fill:#303030; stroke:none;" d="M208 11L208 12L211 12L208 11M349 11L349 12L356 13L349 11M204 12L204 13L207 13L204 12z"/>
<path style="fill:#101010; stroke:none;" d="M352 12L353 13L352 12z"/>
<path style="fill:#303030; stroke:none;" d="M201 13L201 14L204 14L201 13M356 13L356 14L359 14L356 13M197 14L197 15L200 15L197 14z"/>
<path style="fill:#101010; stroke:none;" d="M200 14L201 15L200 14z"/>
<path style="fill:#ffffff; stroke:none;" d="M274 14.4244C249.833 17.5976 226.674 18.5896 203 25.7199C133.569 46.6314 75.2705 96.6008 42.2593 161C29.9614 184.991 22.0999 211.463 17.7539 238C12.6705 269.039 13.2755 301.128 19.4491 332C46.2613 466.078 176.35 560.593 312 543.715C443.158 527.396 545.992 412.631 545.992 280C545.992 166.531 470.318 63.4048 363 27.6667C336.358 18.7947 302.188 10.7232 274 14.4244z"/>
<path style="fill:#101010; stroke:none;" d="M359 14L360 15L359 14z"/>
<path style="fill:#303030; stroke:none;" d="M360 14L360 15L363 15L360 14M194 15L194 16L197 16L194 15M363 15L363 16L366 16L363 15M191 16L191 17L194 17L191 16M366 16L366 17L369 17L366 16M188 17L188 18L191 18L188 17M369 17L369 18L372 18L369 17M186.667 18.3333L187.333 18.6667L186.667 18.3333M372 18L372 19L377 20L377 19L372 18M183.667 19.3333L184.333 19.6667L183.667 19.3333z"/>
<path style="fill:#101010; stroke:none;" d="M185 19L186 20L185 19M374 19L375 20L374 19z"/>
<path style="fill:#303030; stroke:none;" d="M180.667 20.3333L181.333 20.6667L180.667 20.3333z"/>
<path style="fill:#101010; stroke:none;" d="M182 20L183 21L182 20M377 20L378 21L377 20z"/>
<path style="fill:#303030; stroke:none;" d="M378.667 20.3333L379.333 20.6667L378.667 20.3333M178.667 21.3333L179.333 21.6667L178.667 21.3333M380.667 21.3333L381.333 21.6667L380.667 21.3333M175.667 22.3333L176.333 22.6667L175.667 22.3333z"/>
<path style="fill:#101010; stroke:none;" d="M177 22L178 23L177 22M382 22L383 23L382 22z"/>
<path style="fill:#303030; stroke:none;" d="M383.667 22.3333L384.333 22.6667L383.667 22.3333M173.667 23.3333L174.333 23.6667L173.667 23.3333M385.667 23.3333L386.333 23.6667L385.667 23.3333M168 25L168 26L172 25L168 25z"/>
<path style="fill:#101010; stroke:none;" d="M172 24L173 25L172 24M387 24L388 25L387 24z"/>
<path style="fill:#303030; stroke:none;" d="M388 24L388 25L392 26L392 25L388 24z"/>
<path style="fill:#101010; stroke:none;" d="M170 25L171 26L170 25M389 25L390 26L389 25z"/>
<path style="fill:#303030; stroke:none;" d="M166.667 26.3333L167.333 26.6667L166.667 26.3333z"/>
<path style="fill:#101010; stroke:none;" d="M392 26L393 27L392 26z"/>
<path style="fill:#303030; stroke:none;" d="M393 26L394 27L393 26M164 27L165 28L164 27z"/>
<path style="fill:#101010; stroke:none;" d="M165 27L166 28L165 27M394 27L395 28L394 27z"/>
<path style="fill:#303030; stroke:none;" d="M395 27L396 28L395 27M162 28L163 29L162 28z"/>
<path style="fill:#101010; stroke:none;" d="M163 28L164 29L163 28M396 28L397 29L396 28z"/>
<path style="fill:#303030; stroke:none;" d="M397 28L397 29L410 35L410 34L397 28M160 29L161 30L160 29z"/>
<path style="fill:#101010; stroke:none;" d="M161 29L162 30L161 29M398 29L399 30L398 29z"/>
<path style="fill:#303030; stroke:none;" d="M152 33L152 34L159 31L152 33z"/>
<path style="fill:#101010; stroke:none;" d="M159 30L160 31L159 30M400 30L401 31L400 30M157 31L158 32L157 31M402 31L403 32L402 31M155 32L156 33L155 32M404 32L405 33L404 32M153 33L154 34L153 33M406 33L407 34L406 33z"/>
<path style="fill:#303030; stroke:none;" d="M150 34L151 35L150 34z"/>
<path style="fill:#101010; stroke:none;" d="M151 34L152 35L151 34M408 34L409 35L408 34z"/>
<path style="fill:#303030; stroke:none;" d="M148 35L149 36L148 35z"/>
<path style="fill:#101010; stroke:none;" d="M149 35L150 36L149 35M410 35L411 36L410 35z"/>
<path style="fill:#303030; stroke:none;" d="M411 35L412 36L411 35M146 36L147 37L146 36z"/>
<path style="fill:#101010; stroke:none;" d="M147 36L148 37L147 36M412 36L413 37L412 36z"/>
<path style="fill:#303030; stroke:none;" d="M413 36L414 37L413 36M144 37L145 38L144 37z"/>
<path style="fill:#101010; stroke:none;" d="M145 37L146 38L145 37M414 37L415 38L414 37z"/>
<path style="fill:#303030; stroke:none;" d="M415 37L416 38L415 37M142.667 38.3333L143.333 38.6667L142.667 38.3333M416.667 38.3333L417.333 38.6667L416.667 38.3333M141 39L142 40L141 39M418 39L419 40L418 39M139 40L140 41L139 40z"/>
<path style="fill:#101010; stroke:none;" d="M140 40L141 41L140 40M419 40L420 41L419 40z"/>
<path style="fill:#303030; stroke:none;" d="M420 40L421 41L420 40M137 41L138 42L137 41z"/>
<path style="fill:#101010; stroke:none;" d="M138 41L139 42L138 41M421 41L422 42L421 41z"/>
<path style="fill:#303030; stroke:none;" d="M422 41L423 42L422 41M136 42L137 43L136 42M423 42L423 43L426 44L423 42M134 43L135 44L134 43z"/>
<path style="fill:#101010; stroke:none;" d="M135 43L136 44L135 43M424 43L425 44L424 43z"/>
<path style="fill:#303030; stroke:none;" d="M132.667 44.3333L133.333 44.6667L132.667 44.3333M426 44L426 45L429 46L426 44M131 45L132 46L131 45z"/>
<path style="fill:#101010; stroke:none;" d="M427 45L428 46L427 45z"/>
<path style="fill:#303030; stroke:none;" d="M129 46L130 47L129 46z"/>
<path style="fill:#101010; stroke:none;" d="M130 46L131 47L130 46M429 46L431 48L429 46z"/>
<path style="fill:#303030; stroke:none;" d="M430 46L431 47L430 46M128 47L129 48L128 47M431 47L432 48L431 47M126 48L127 49L126 48z"/>
<path style="fill:#101010; stroke:none;" d="M127 48L128 49L127 48M432 48L434 50L432 48z"/>
<path style="fill:#303030; stroke:none;" d="M433 48L434 49L433 48M125 49L126 50L125 49M434 49L435 50L434 49M123 50L124 51L123 50z"/>
<path style="fill:#101010; stroke:none;" d="M124 50L125 51L124 50M435 50L437 52L435 50z"/>
<path style="fill:#303030; stroke:none;" d="M436 50L437 51L436 50M122 51L123 52L122 51M437 51L438 52L437 51M120 52L121 53L120 52z"/>
<path style="fill:#101010; stroke:none;" d="M121 52L122 53L121 52M438 52L440 54L438 52z"/>
<path style="fill:#303030; stroke:none;" d="M439 52L440 53L439 52M119 53L120 54L119 53M440 53L441 54L440 53M118 54L119 55L118 54M441 54L441 55L444 56L441 54M116 55L117 56L116 55z"/>
<path style="fill:#101010; stroke:none;" d="M117 55L118 56L117 55M442 55L443 56L442 55z"/>
<path style="fill:#303030; stroke:none;" d="M115 56L116 57L115 56M444 56L445 57L444 56M112 59L115 58L112 59z"/>
<path style="fill:#101010; stroke:none;" d="M445 57L447 59L445 57z"/>
<path style="fill:#303030; stroke:none;" d="M446 57L447 58L446 57z"/>
<path style="fill:#101010; stroke:none;" d="M113 58L114 59L113 58z"/>
<path style="fill:#303030; stroke:none;" d="M447 58L448 59L447 58M111 59L112 60L111 59M448 59L449 60L448 59M108 62L111 61L108 62M449 60L449 61L452 62L449 60z"/>
<path style="fill:#101010; stroke:none;" d="M109 61L110 62L109 61M450 61L451 62L450 61z"/>
<path style="fill:#303030; stroke:none;" d="M107 62L108 63L107 62M452 62L453 63L452 62M106 63L107 64L106 63M453 63L454 64L453 63M102 67L106 65L102 67z"/>
<path style="fill:#101010; stroke:none;" d="M454 64L457 67L454 64z"/>
<path style="fill:#303030; stroke:none;" d="M455 64L456 65L455 64z"/>
<path style="fill:#101010; stroke:none;" d="M104 65L105 66L104 65z"/>
<path style="fill:#303030; stroke:none;" d="M456 65L457 66L456 65z"/>
<path style="fill:#101010; stroke:none;" d="M103 66L104 67L103 66z"/>
<path style="fill:#303030; stroke:none;" d="M457 66L458 67L457 66M101 67L102 68L101 67M458 67L459 68L458 67M100 68L101 69L100 68M459 68L460 69L459 68M99 69L100 70L99 69z"/>
<path style="fill:#101010; stroke:none;" d="M460 69L463 72L460 69z"/>
<path style="fill:#303030; stroke:none;" d="M461 69L462 70L461 69M97 70L96 72L97 70z"/>
<path style="fill:#101010; stroke:none;" d="M98 70L99 71L98 70z"/>
<path style="fill:#303030; stroke:none;" d="M462 70L463 71L462 70z"/>
<path style="fill:#101010; stroke:none;" d="M97 71L98 72L97 71z"/>
<path style="fill:#303030; stroke:none;" d="M463 71L464 72L463 71M95 72L96 73L95 72M464 72L465 73L464 72M94 73L95 74L94 73M465 73L466 74L465 73M93 74L94 75L93 74M466 74L467 75L466 74M92 75L93 76L92 75M467 75L468 76L467 75M91 76L92 77L91 76M468 76L469 77L468 76M90 77L91 78L90 77M469 77L470 78L469 77M78 89L90 79C85.0122 78.8945 80.6757 85.2015 78 89z"/>
<path style="fill:#101010; stroke:none;" d="M470 78L481 89L470 78z"/>
<path style="fill:#303030; stroke:none;" d="M471 78L472 79L471 78z"/>
<path style="fill:#101010; stroke:none;" d="M88 79L89 80L88 79z"/>
<path style="fill:#303030; stroke:none;" d="M472 79L473 80L472 79z"/>
<path style="fill:#101010; stroke:none;" d="M87 80L88 81L87 80z"/>
<path style="fill:#303030; stroke:none;" d="M473 80L474 81L473 80z"/>
<path style="fill:#101010; stroke:none;" d="M86 81L87 82L86 81z"/>
<path style="fill:#303030; stroke:none;" d="M474 81L475 82L474 81z"/>
<path style="fill:#101010; stroke:none;" d="M85 82L86 83L85 82z"/>
<path style="fill:#303030; stroke:none;" d="M475 82L476 83L475 82z"/>
<path style="fill:#101010; stroke:none;" d="M84 83L85 84L84 83z"/>
<path style="fill:#303030; stroke:none;" d="M476 83L477 84L476 83z"/>
<path style="fill:#101010; stroke:none;" d="M83 84L84 85L83 84z"/>
<path style="fill:#303030; stroke:none;" d="M477 84L478 85L477 84z"/>
<path style="fill:#101010; stroke:none;" d="M82 85L83 86L82 85z"/>
<path style="fill:#303030; stroke:none;" d="M478 85L479 86L478 85z"/>
<path style="fill:#101010; stroke:none;" d="M81 86L82 87L81 86z"/>
<path style="fill:#303030; stroke:none;" d="M479 86L480 87L479 86z"/>
<path style="fill:#101010; stroke:none;" d="M80 87L81 88L80 87z"/>
<path style="fill:#303030; stroke:none;" d="M480 87L481 88L480 87z"/>
<path style="fill:#101010; stroke:none;" d="M79 88L80 89L79 88z"/>
<path style="fill:#303030; stroke:none;" d="M481.333 88.6667L481.667 89.3333L481.333 88.6667z"/>
<path style="fill:#101010; stroke:none;" d="M78 89L79 90L78 89z"/>
<path style="fill:#303030; stroke:none;" d="M77 90L78 91L77 90M482 90L483 91L482 90M76 91L77 92L76 91M483 91L484 92L483 91M75 92L76 93L75 92M484 92L485 93L484 92M74 93L75 94L74 93M485 93L486 94L485 93M73 94L74 95L73 94M486 94L487 95L486 94M72 95L73 96L72 95M487 95L488 96L487 95M71 96L69 100L70 100L71 96M488 96L490 98L488 96z"/>
<path style="fill:#101010; stroke:none;" d="M71 97L72 98L71 97M488 97L489 98L488 97M70 98L71 99L70 98M489 98L490 99L489 98z"/>
<path style="fill:#303030; stroke:none;" d="M490 99L491 100L490 99M68 100L69 101L68 100M491 100L492 101L491 100M67 101L68 102L67 101M492 101L493 102L492 101M66 102L64 105L66 102z"/>
<path style="fill:#c3ced8; stroke:none;" d="M215 153L217 153C227.376 183.671 238.361 213.662 246.849 245C259.549 291.892 269.353 340.023 285.14 386C293.091 409.157 303.057 451.804 332 456.674C361.156 461.581 376.568 432.895 385.799 410C406.581 358.462 418.325 301.362 429.2 247C432.859 228.71 443.765 203.608 439.471 185C435.547 168 413.056 163.669 402.394 177.015C397.334 183.349 396.42 192.328 394.789 200C391.742 214.337 388.723 228.673 385.576 243C380.876 264.397 376.184 285.757 370.873 307C362.392 340.926 352.638 373.426 340 406C326.637 384.988 321.651 356.696 314.859 333C300.394 282.538 289.753 230.947 273.519 181C265.28 155.654 255.277 111.641 226 103.043C184.804 90.9459 168.393 150.774 159.255 179C139.679 239.464 127.856 302.732 115.4 365C112.337 380.311 109.577 395.732 106.339 411C104.441 419.95 100.599 430.844 102.681 440.001C106.804 458.134 131.671 463.613 141.647 446.996C146.873 438.293 147.257 426.775 149.2 417C153.177 396.99 156.99 376.962 161.211 357C166.998 329.627 173.14 302.358 179 275C184.588 248.911 190.653 222.407 198.887 197C203.671 182.236 210.928 167.888 215 153z"/>
<path style="fill:#303030; stroke:none;" d="M493 102L495 106L496 106L493 102z"/>
<path style="fill:#101010; stroke:none;" d="M66 103L67 104L66 103z"/>
<path style="fill:#c3ced8; stroke:none;" d="M430 103.532C403.951 109.737 399.909 172.418 435 164.319C461.987 158.092 465.404 95.1002 430 103.532z"/>
<path style="fill:#101010; stroke:none;" d="M493 103L494 104L493 103M65 104L66 105L65 104M494 104L495 105L494 104M64 105L65 106L64 105z"/>
<path style="fill:#303030; stroke:none;" d="M63 106L64 107L63 106M496 106L497 107L496 106M62 107L63 108L62 107M497 107L498 108L497 107M61 108L60 111L61 111L61 108M498 108L499 111L500 111L498 108z"/>
<path style="fill:#101010; stroke:none;" d="M61 109L62 110L61 109M498 109L499 110L498 109z"/>
<path style="fill:#303030; stroke:none;" d="M59 111L60 112L59 111M500 111L501 112L500 111M58 112L57 114L58 112M501 112L502 115L503 115L501 112z"/>
<path style="fill:#101010; stroke:none;" d="M58 113L59 114L58 113M501 113L502 114L501 113M57 114L58 115L57 114z"/>
<path style="fill:#ffffff; stroke:none;" d="M212 114.529C189.877 119.606 181.656 153.656 174.953 172C152.399 233.72 141.528 300.768 128.6 365C124.514 385.303 120.86 405.692 116.8 426C115.512 432.442 113.857 444.085 123.999 443.833C131.053 443.657 132.677 436.606 133.8 431C136.801 416.026 139.382 400.97 142.4 386C155.111 322.943 168.348 260.102 185.151 198C189.984 180.14 196.364 162.496 204.756 146C206.87 141.844 211.866 131.035 217.996 133.176C223.393 135.061 226.931 143.242 229.216 148C236.099 162.328 241.325 177.745 245.709 193C263.179 253.78 277.756 315.318 295.576 376C300.718 393.512 307.144 415.328 318.239 430C325.043 438.997 333.158 445.326 345 442.467C362.674 438.2 372.396 410.234 377.494 395C393.838 346.156 405.419 296.231 416.576 246C420.128 230.003 423.777 214.098 426.804 198C427.968 191.811 428.749 182.74 419.997 182.283C413.929 181.967 411.298 186.896 409.888 192C406.727 203.444 405.464 215.442 402.626 227C390.604 275.955 382.41 326.25 365.861 374C361.007 388.007 356.843 402.288 348.934 415C346.717 418.564 342.34 426.271 337.093 423.914C332.015 421.631 329.187 413.656 326.92 409C319.646 394.062 314.727 377.931 310.141 362C292.816 301.816 281.239 239.023 260.218 180C253.944 162.385 248.89 143.624 238.254 128C232.077 118.926 223.643 111.857 212 114.529z"/>
<path style="fill:#303030; stroke:none;" d="M56 115L57 116L56 115M503 115L504 116L503 115M55 116L54 119L55 119L55 116M504 116L505 117L504 116z"/>
<path style="fill:#101010; stroke:none;" d="M55 117L56 118L55 117M504 117L505 118L504 117z"/>
<path style="fill:#303030; stroke:none;" d="M505 118L506 119L505 118M53 119L52 121L53 119M506 119L507 120L506 119z"/>
<path style="fill:#101010; stroke:none;" d="M53 120L54 121L53 120z"/>
<path style="fill:#303030; stroke:none;" d="M507 120L508 121L507 120z"/>
<path style="fill:#101010; stroke:none;" d="M52 121L53 122L52 121M507 121L508 122L507 121z"/>
<path style="fill:#303030; stroke:none;" d="M51 122L50 124L51 122M508 122L509 123L508 122z"/>
<path style="fill:#101010; stroke:none;" d="M51 123L52 124L51 123z"/>
<path style="fill:#303030; stroke:none;" d="M509 123L510 124L509 123z"/>
<path style="fill:#101010; stroke:none;" d="M50 124L51 125L50 124M509 124L510 125L509 124z"/>
<path style="fill:#303030; stroke:none;" d="M49 125L48 127L49 125M510 125L511 126L510 125z"/>
<path style="fill:#101010; stroke:none;" d="M49 126L50 127L49 126z"/>
<path style="fill:#303030; stroke:none;" d="M511 126L512 127L511 126z"/>
<path style="fill:#101010; stroke:none;" d="M48 127L49 128L48 127M511 127L512 128L511 127z"/>
<path style="fill:#303030; stroke:none;" d="M47 128L46 130L47 128M512 128L513 129L512 128z"/>
<path style="fill:#101010; stroke:none;" d="M47 129L48 130L47 129z"/>
<path style="fill:#303030; stroke:none;" d="M513 129L514 130L513 129z"/>
<path style="fill:#101010; stroke:none;" d="M46 130L47 131L46 130M513 130L514 131L513 130z"/>
<path style="fill:#303030; stroke:none;" d="M45 131L44 134L45 134L45 131M514 131L515 132L514 131z"/>
<path style="fill:#101010; stroke:none;" d="M45 132L46 133L45 132z"/>
<path style="fill:#303030; stroke:none;" d="M515.333 132.667L515.667 133.333L515.333 132.667M43 134L42 137L43 137L43 134M516 134L517 135L516 134z"/>
<path style="fill:#101010; stroke:none;" d="M43 135L44 136L43 135M516 135L517 136L516 135z"/>
<path style="fill:#303030; stroke:none;" d="M517 136L518 137L517 136M41 137L42 138L41 137M518 137L519 138L518 137z"/>
<path style="fill:#101010; stroke:none;" d="M41 138L42 139L41 138M518 138L519 139L518 138z"/>
<path style="fill:#303030; stroke:none;" d="M40 139L41 140L40 139M519 139L520 140L519 139z"/>
<path style="fill:#101010; stroke:none;" d="M40 140L41 141L40 140M519 140L520 141L519 140z"/>
<path style="fill:#303030; stroke:none;" d="M39 141L40 142L39 141M520 141L521 142L520 141M38.3333 142.667L38.6667 143.333L38.3333 142.667M521.333 142.667L521.667 143.333L521.333 142.667M37 144L38 145L37 144M522 144L523 145L522 144z"/>
<path style="fill:#101010; stroke:none;" d="M37 145L38 146L37 145M522 145L523 146L522 145z"/>
<path style="fill:#303030; stroke:none;" d="M36 146L37 147L36 146M523 146L524 147L523 146z"/>
<path style="fill:#101010; stroke:none;" d="M36 147L37 148L36 147M523 147L524 148L523 147z"/>
<path style="fill:#303030; stroke:none;" d="M35 148L36 149L35 148M524 148L525 149L524 148z"/>
<path style="fill:#101010; stroke:none;" d="M35 149L36 150L35 149M524 149L525 150L524 149z"/>
<path style="fill:#303030; stroke:none;" d="M34 150L28 163L29 163L34 150M525 150L526 151L525 150z"/>
<path style="fill:#101010; stroke:none;" d="M34 151L35 152L34 151M525 151L526 152L525 151z"/>
<path style="fill:#303030; stroke:none;" d="M526 152L529 159L530 159L526 152z"/>
<path style="fill:#101010; stroke:none;" d="M33 153L34 154L33 153M526 153L527 154L526 153M32 155L33 156L32 155M527 155L528 156L527 155M31 157L32 158L31 157M528 157L529 158L528 157M30 159L31 160L30 159M529 159L530 160L529 159z"/>
<path style="fill:#303030; stroke:none;" d="M530 160L531 161L530 160z"/>
<path style="fill:#101010; stroke:none;" d="M29 161L30 162L29 161M530 161L531 162L530 161z"/>
<path style="fill:#303030; stroke:none;" d="M531 162L532 163L531 162z"/>
<path style="fill:#101010; stroke:none;" d="M28 163L29 164L28 163M531 163L532 164L531 163z"/>
<path style="fill:#303030; stroke:none;" d="M27 164L28 165L27 164M532 164L533 165L532 164z"/>
<path style="fill:#101010; stroke:none;" d="M27 165L28 166L27 165M532 165L533 166L532 165z"/>
<path style="fill:#303030; stroke:none;" d="M26 166L27 167L26 166M533.333 166.667L533.667 167.333L533.333 166.667z"/>
<path style="fill:#101010; stroke:none;" d="M26 167L27 168L26 167z"/>
<path style="fill:#303030; stroke:none;" d="M25 168L24 172L25 172L25 168M534 168L535 172L536 172L534 168z"/>
<path style="fill:#101010; stroke:none;" d="M25 170L26 171L25 170M534 170L535 171L534 170M24 172L25 173L24 172M535 172L536 173L535 172z"/>
<path style="fill:#303030; stroke:none;" d="M23.3333 173.667L23.6667 174.333L23.3333 173.667M536.333 173.667L536.667 174.333L536.333 173.667M22.3333 175.667L22.6667 176.333L22.3333 175.667M537.333 175.667L537.667 176.333L537.333 175.667z"/>
<path style="fill:#101010; stroke:none;" d="M22 177L23 178L22 177M537 177L538 178L537 177z"/>
<path style="fill:#303030; stroke:none;" d="M21.3333 178.667L21.6667 179.333L21.3333 178.667M538.333 178.667L538.667 179.333L538.333 178.667M20.3333 180.667L20.6667 181.333L20.3333 180.667M539.333 180.667L539.667 181.333L539.333 180.667z"/>
<path style="fill:#101010; stroke:none;" d="M20 182L21 183L20 182M539 182L540 183L539 182z"/>
<path style="fill:#303030; stroke:none;" d="M19 183L18 188L19 188L19 183M540.333 183.667L540.667 184.333L540.333 183.667z"/>
<path style="fill:#101010; stroke:none;" d="M19 185L20 186L19 185M540 185L541 186L540 185z"/>
<path style="fill:#303030; stroke:none;" d="M541.333 186.667L541.667 187.333L541.333 186.667M17 188L17 191L18 191L17 188M542 188L542 191L543 191L542 188M16 191L16 194L17 194L16 191M543 191L543 194L544 194L543 191M15 194L15 197L16 197L15 194M544 194L544 197L545 197L544 194M14 197L14 200L15 200L14 197M545 197L545 200L546 200L545 197z"/>
<path style="fill:#101010; stroke:none;" d="M14 200L15 201L14 200M545 200L546 201L545 200z"/>
<path style="fill:#303030; stroke:none;" d="M13 201L13 204L14 204L13 201M546 201L546 204L547 204L546 201M12 204L11 211L12 211L12 204M547 204L547 207L548 207L547 204z"/>
<path style="fill:#101010; stroke:none;" d="M12 207L13 208L12 207z"/>
<path style="fill:#303030; stroke:none;" d="M548 208L548 211L549 211L548 208M10 211L9 219L10 219L10 211M549 211L549 215L550 215L549 211z"/>
<path style="fill:#101010; stroke:none;" d="M10 215L11 216L10 215z"/>
<path style="fill:#303030; stroke:none;" d="M550 215L550 219L551 219L550 215z"/>
<path style="fill:#101010; stroke:none;" d="M9 219L10 220L9 219M550 219L551 220L550 219z"/>
<path style="fill:#303030; stroke:none;" d="M8 220L8 224L9 224L8 220M551 220L551 224L552 224L551 220z"/>
<path style="fill:#101010; stroke:none;" d="M8 224L9 225L8 224z"/>
<path style="fill:#303030; stroke:none;" d="M552 224L552 229L553 229L552 224M7 225L7 229L8 229L7 225z"/>
<path style="fill:#101010; stroke:none;" d="M7 229L8 230L7 229M552 229L553 230L552 229z"/>
<path style="fill:#303030; stroke:none;" d="M6 230L3 255L4 255L6 230M553 230L553 235L554 235L553 230M3 234L4 235L3 234z"/>
<path style="fill:#101010; stroke:none;" d="M6 235L7 236L6 235z"/>
<path style="fill:#303030; stroke:none;" d="M554 236L554 240L555 240L554 236M2 241L3 242L2 241z"/>
<path style="fill:#101010; stroke:none;" d="M5 242L6 243L5 242z"/>
<path style="fill:#303030; stroke:none;" d="M555 242L555 246L556 246L555 242M1 249L1 253L2 253L1 249M558 249L558 253L559 253L558 249z"/>
<path style="fill:#101010; stroke:none;" d="M4 250L5 251L4 250z"/>
<path style="fill:#303030; stroke:none;" d="M556 251L557 252L556 251z"/>
<path style="fill:#101010; stroke:none;" d="M1 253L1 307L2 307L2 271L1 253M558 253L558 307L559 307C559 290.897 564.372 268.185 558 253z"/>
<path style="fill:#303030; stroke:none;" d="M0 260L0 267L1 267L0 260M559 260L559 267L560 267L559 260M0 293L0 300L1 300L0 293M559 293L559 300L560 300L559 293z"/>
<path style="fill:#787878; stroke:none;" d="M0 300L0 560L260 560L260 559L249 559L249 558L259 558L259 557C231.817 556.925 203.024 548.41 178 538.4C85.1955 501.277 3.06887 403.997 3 300L2 300L2 311L1 311L0 300M559 300L559 311L558 311L558 301L557 301C556.925 328.183 548.41 356.976 538.4 382C501.314 474.71 404.71 556.141 301 557L301 558L311 558L311 559L300 559L300 560L560 560L560 377L560 324L559 300z"/>
<path style="fill:#303030; stroke:none;" d="M3 305L8 340L9 340L3 305M1 307L1 311L2 311L1 307M558 307L558 311L559 311L558 307M556.333 308.667L556.667 309.333L556.333 308.667z"/>
<path style="fill:#101010; stroke:none;" d="M4 309L5 310L4 309z"/>
<path style="fill:#303030; stroke:none;" d="M555 314L555 318L556 318L555 314z"/>
<path style="fill:#101010; stroke:none;" d="M5 317L6 318L5 317z"/>
<path style="fill:#303030; stroke:none;" d="M2 318L3 319L2 318M554 320L554 325L555 325L554 320z"/>
<path style="fill:#101010; stroke:none;" d="M6 324L7 325L6 324z"/>
<path style="fill:#303030; stroke:none;" d="M3 325L4 326L3 325M553 325L553 330L554 330L553 325z"/>
<path style="fill:#101010; stroke:none;" d="M7 330L8 331L7 330M552 330L553 331L552 330z"/>
<path style="fill:#303030; stroke:none;" d="M4 331L5 332L4 331M552 331L552 335L553 335L552 331z"/>
<path style="fill:#101010; stroke:none;" d="M8 335L9 336L8 335M551 335L552 336L551 335z"/>
<path style="fill:#303030; stroke:none;" d="M5 336L6 337L5 336M551 336L551 340L552 340L551 336z"/>
<path style="fill:#101010; stroke:none;" d="M9 340L10 341L9 340M550 340L551 341L550 340z"/>
<path style="fill:#303030; stroke:none;" d="M9 341L9 345L10 345L9 341M550 341L549 349L550 349L550 341z"/>
<path style="fill:#101010; stroke:none;" d="M549 344L550 345L549 344z"/>
<path style="fill:#303030; stroke:none;" d="M10 345L10 349L11 349L10 345M11 349L11 352L12 352L11 349M548 349L547 356L548 356L548 349z"/>
<path style="fill:#101010; stroke:none;" d="M547 352L548 353L547 352z"/>
<path style="fill:#303030; stroke:none;" d="M12 353L12 356L13 356L12 353M13 356L13 359L14 359L13 356M546 356L546 359L547 359L546 356z"/>
<path style="fill:#101010; stroke:none;" d="M14 359L15 360L14 359M545 359L546 360L545 359z"/>
<path style="fill:#303030; stroke:none;" d="M14 360L14 363L15 363L14 360M545 360L545 363L546 363L545 360M15 363L15 366L16 366L15 363M544 363L544 366L545 366L544 363M16 366L16 369L17 369L16 366M543 366L543 369L544 369L543 366M17 369L17 372L18 372L17 369M542 369L542 372L543 372L542 369M18.3333 372.667L18.6667 373.333L18.3333 372.667M541 372L540 377L541 377L541 372z"/>
<path style="fill:#101010; stroke:none;" d="M19 374L20 375L19 374M540 374L541 375L540 374z"/>
<path style="fill:#303030; stroke:none;" d="M19.3333 375.667L19.6667 376.333L19.3333 375.667z"/>
<path style="fill:#101010; stroke:none;" d="M20 377L21 378L20 377M539 377L540 378L539 377z"/>
<path style="fill:#303030; stroke:none;" d="M20.3333 378.667L20.6667 379.333L20.3333 378.667M539.333 378.667L539.667 379.333L539.333 378.667M21.3333 380.667L21.6667 381.333L21.3333 380.667M538.333 380.667L538.667 381.333L538.333 380.667z"/>
<path style="fill:#101010; stroke:none;" d="M22 382L23 383L22 382M537 382L538 383L537 382z"/>
<path style="fill:#303030; stroke:none;" d="M22.3333 383.667L22.6667 384.333L22.3333 383.667M537.333 383.667L537.667 384.333L537.333 383.667M23.3333 385.667L23.6667 386.333L23.3333 385.667M536.333 385.667L536.667 386.333L536.333 385.667z"/>
<path style="fill:#101010; stroke:none;" d="M24 387L25 388L24 387M535 387L536 388L535 387z"/>
<path style="fill:#303030; stroke:none;" d="M24 388L25 392L26 392L24 388M535 388L534 392L535 392L535 388z"/>
<path style="fill:#101010; stroke:none;" d="M25 389L26 390L25 389M534 389L535 390L534 389z"/>
<path style="fill:#303030; stroke:none;" d="M26.3333 392.667L26.6667 393.333L26.3333 392.667z"/>
<path style="fill:#101010; stroke:none;" d="M533 392L534 393L533 392z"/>
<path style="fill:#303030; stroke:none;" d="M533 393L534 394L533 393z"/>
<path style="fill:#101010; stroke:none;" d="M27 394L28 395L27 394M532 394L533 395L532 394z"/>
<path style="fill:#303030; stroke:none;" d="M27 395L28 396L27 395M532 395L533 396L532 395z"/>
<path style="fill:#101010; stroke:none;" d="M28 396L29 397L28 396M531 396L532 397L531 396z"/>
<path style="fill:#303030; stroke:none;" d="M28 397L29 398L28 397M531 397L525 410L526 410L531 397z"/>
<path style="fill:#101010; stroke:none;" d="M29 398L30 399L29 398M530 398L531 399L530 398z"/>
<path style="fill:#303030; stroke:none;" d="M29 399L30 400L29 399z"/>
<path style="fill:#101010; stroke:none;" d="M30 400L31 401L30 400M529 400L530 401L529 400z"/>
<path style="fill:#303030; stroke:none;" d="M30 401L33 408L34 408L30 401z"/>
<path style="fill:#101010; stroke:none;" d="M31 402L32 403L31 402M528 402L529 403L528 402M32 404L33 405L32 404M527 404L528 405L527 404M33 406L34 407L33 406M526 406L527 407L526 406M34 408L35 409L34 408M525 408L526 409L525 408z"/>
<path style="fill:#303030; stroke:none;" d="M34 409L35 410L34 409z"/>
<path style="fill:#101010; stroke:none;" d="M35 410L36 411L35 410M524 410L525 411L524 410z"/>
<path style="fill:#303030; stroke:none;" d="M35 411L36 412L35 411M524 411L525 412L524 411z"/>
<path style="fill:#101010; stroke:none;" d="M36 412L37 413L36 412M523 412L524 413L523 412z"/>
<path style="fill:#303030; stroke:none;" d="M36 413L37 414L36 413M523 413L524 414L523 413z"/>
<path style="fill:#101010; stroke:none;" d="M37 414L38 415L37 414M522 414L523 415L522 414z"/>
<path style="fill:#303030; stroke:none;" d="M37 415L38 416L37 415M522 415L523 416L522 415M38.3333 416.667L38.6667 417.333L38.3333 416.667M521.333 416.667L521.667 417.333L521.333 416.667M39 418L40 419L39 418M520 418L521 419L520 418z"/>
<path style="fill:#101010; stroke:none;" d="M40 419L41 420L40 419M519 419L520 420L519 419z"/>
<path style="fill:#303030; stroke:none;" d="M40 420L41 421L40 420M519 420L520 421L519 420z"/>
<path style="fill:#101010; stroke:none;" d="M41 421L42 422L41 421M518 421L519 422L518 421z"/>
<path style="fill:#303030; stroke:none;" d="M41 422L42 423L41 422M518 422L519 423L518 422M42 423L43 424L42 423M517 423L516 426L517 423z"/>
<path style="fill:#101010; stroke:none;" d="M43 424L44 425L43 424M516 424L517 425L516 424z"/>
<path style="fill:#303030; stroke:none;" d="M43 425L44 426L43 425M44.3333 426.667L44.6667 427.333L44.3333 426.667M515 426L514 429L515 426z"/>
<path style="fill:#101010; stroke:none;" d="M514 427L515 428L514 427z"/>
<path style="fill:#303030; stroke:none;" d="M45 428L46 429L45 428z"/>
<path style="fill:#101010; stroke:none;" d="M46 429L47 430L46 429M513 429L512 431L513 429z"/>
<path style="fill:#303030; stroke:none;" d="M46 430L47 431L46 430M513 430L514 431L513 430M47 431L48 432L47 431M512 431L513 432L512 431z"/>
<path style="fill:#101010; stroke:none;" d="M48 432L49 433L48 432M511 432L510 434L511 432z"/>
<path style="fill:#303030; stroke:none;" d="M48 433L49 434L48 433M511 433L512 434L511 433M49 434L50 435L49 434M510 434L511 435L510 434z"/>
<path style="fill:#101010; stroke:none;" d="M50 435L51 436L50 435M509 435L508 437L509 435z"/>
<path style="fill:#303030; stroke:none;" d="M50 436L51 437L50 436M509 436L510 437L509 436M51 437L52 438L51 437M508 437L509 438L508 437z"/>
<path style="fill:#101010; stroke:none;" d="M52 438L53 439L52 438M507 438L506 440L507 438z"/>
<path style="fill:#303030; stroke:none;" d="M52 439L53 440L52 439M507 439L508 440L507 439M53 440L54 441L53 440M506 440L507 441L506 440M54 441L55 442L54 441M505 441L504 444L505 441z"/>
<path style="fill:#101010; stroke:none;" d="M55 442L56 443L55 442M504 442L505 443L504 442z"/>
<path style="fill:#303030; stroke:none;" d="M55 443L56 444L55 443M56 444L57 445L56 444M503 444L504 445L503 444M57 445L59 448L57 445z"/>
<path style="fill:#101010; stroke:none;" d="M502 445L501 447L502 445M58 446L59 447L58 446z"/>
<path style="fill:#303030; stroke:none;" d="M502 446L503 447L502 446M501 447L502 448L501 447M59 448L60 449L59 448M500 448L501 449L500 448M60 449L62 452L60 449M499 449L498 452L499 449z"/>
<path style="fill:#101010; stroke:none;" d="M61 450L62 451L61 450M498 450L499 451L498 450z"/>
<path style="fill:#303030; stroke:none;" d="M62 452L63 453L62 452M497 452L498 453L497 452M63 453L64 454L63 453M496 453L497 454L496 453M64 454L67 458L64 454z"/>
<path style="fill:#101010; stroke:none;" d="M495 454L493 457L495 454M65 455L66 456L65 455z"/>
<path style="fill:#303030; stroke:none;" d="M495 455L496 456L495 455z"/>
<path style="fill:#101010; stroke:none;" d="M66 456L67 457L66 456z"/>
<path style="fill:#303030; stroke:none;" d="M494 456L495 457L494 456M493 457L494 458L493 457M67 458L68 459L67 458M492 458L493 459L492 458M68 459L69 460L68 459M491 459L492 460L491 459M69 460L70 461L69 460z"/>
<path style="fill:#101010; stroke:none;" d="M490 460L488 463L490 460M70 461L72 463L70 461z"/>
<path style="fill:#303030; stroke:none;" d="M490 461L491 462L490 461M70 462L71 463L70 462M489 462L490 463L489 462M71 463L72 464L71 463M488 463L489 464L488 463M72 464L73 465L72 464M487 464L488 465L487 464M73 465L74 466L73 465M486 465L487 466L486 465M74 466L75 467L74 466M485 466L486 467L485 466M75 467L76 468L75 467M484 467L485 468L484 467M76 468L77 469L76 468M483 468L484 469L483 468M77 469L78 470L77 469M482 469L483 470L482 469M78 470L89 482L78 470z"/>
<path style="fill:#101010; stroke:none;" d="M481 470L471 481L481 470M79 471L80 472L79 471z"/>
<path style="fill:#303030; stroke:none;" d="M481 471L482 472L481 471z"/>
<path style="fill:#101010; stroke:none;" d="M80 472L81 473L80 472z"/>
<path style="fill:#303030; stroke:none;" d="M480 472L481 473L480 472z"/>
<path style="fill:#101010; stroke:none;" d="M81 473L82 474L81 473z"/>
<path style="fill:#303030; stroke:none;" d="M479 473L480 474L479 473z"/>
<path style="fill:#101010; stroke:none;" d="M82 474L83 475L82 474z"/>
<path style="fill:#303030; stroke:none;" d="M478 474L479 475L478 474z"/>
<path style="fill:#101010; stroke:none;" d="M83 475L84 476L83 475z"/>
<path style="fill:#303030; stroke:none;" d="M477 475L478 476L477 475z"/>
<path style="fill:#101010; stroke:none;" d="M84 476L85 477L84 476z"/>
<path style="fill:#303030; stroke:none;" d="M476 476L477 477L476 476z"/>
<path style="fill:#101010; stroke:none;" d="M85 477L86 478L85 477z"/>
<path style="fill:#303030; stroke:none;" d="M475 477L476 478L475 477z"/>
<path style="fill:#101010; stroke:none;" d="M86 478L87 479L86 478z"/>
<path style="fill:#303030; stroke:none;" d="M474 478L475 479L474 478z"/>
<path style="fill:#101010; stroke:none;" d="M87 479L88 480L87 479z"/>
<path style="fill:#303030; stroke:none;" d="M473 479L474 480L473 479z"/>
<path style="fill:#101010; stroke:none;" d="M88 480L89 481L88 480z"/>
<path style="fill:#303030; stroke:none;" d="M472 480L473 481L472 480z"/>
<path style="fill:#101010; stroke:none;" d="M89 481L90 482L89 481z"/>
<path style="fill:#303030; stroke:none;" d="M470.667 481.333L471.333 481.667L470.667 481.333M90 482L91 483L90 482M469 482L470 483L469 482M91 483L92 484L91 483M468 483L469 484L468 483M92 484L93 485L92 484M467 484L468 485L467 484M93 485L94 486L93 485M466 485L467 486L466 485M94 486L95 487L94 486M465 486L466 487L465 486M95 487L96 488L95 487M464 487L465 488L464 487M96 488L99 491L96 488z"/>
<path style="fill:#101010; stroke:none;" d="M97 488L98 489L97 488M462 488L461 490L462 488z"/>
<path style="fill:#303030; stroke:none;" d="M463 488L464 489L463 488z"/>
<path style="fill:#101010; stroke:none;" d="M98 489L99 490L98 489z"/>
<path style="fill:#303030; stroke:none;" d="M462 489L463 490L462 489z"/>
<path style="fill:#101010; stroke:none;" d="M99 490L100 491L99 490z"/>
<path style="fill:#303030; stroke:none;" d="M460 490L461 491L460 490M100 491L101 492L100 491M459 491L460 492L459 491M101 492L102 493L101 492M458 492L459 493L458 492M102 493L105 496L102 493z"/>
<path style="fill:#101010; stroke:none;" d="M103 493L104 494L103 493M456 493L455 495L456 493z"/>
<path style="fill:#303030; stroke:none;" d="M457 493L458 494L457 493z"/>
<path style="fill:#101010; stroke:none;" d="M104 494L105 495L104 494z"/>
<path style="fill:#303030; stroke:none;" d="M456 494L457 495L456 494z"/>
<path style="fill:#101010; stroke:none;" d="M105 495L106 496L105 495z"/>
<path style="fill:#303030; stroke:none;" d="M454.667 495.333L455.333 495.667L454.667 495.333M106 496L107 497L106 496M453 496L454 497L453 496M107 497L108 498L107 497M452 497L453 498L452 497M108 498L111 500L111 499L108 498z"/>
<path style="fill:#101010; stroke:none;" d="M109 498L110 499L109 498M450 498L451 499L450 498z"/>
<path style="fill:#303030; stroke:none;" d="M451 498L452 499L451 498M449.667 499.333L450.333 499.667L449.667 499.333M111 500L112 501L111 500M448 500L449 501L448 500M112 501L114 503L112 501z"/>
<path style="fill:#101010; stroke:none;" d="M113 501L114 502L113 501M446 501L447 502L446 501z"/>
<path style="fill:#303030; stroke:none;" d="M447 501L448 502L447 501z"/>
<path style="fill:#101010; stroke:none;" d="M114 502L115 503L114 502z"/>
<path style="fill:#303030; stroke:none;" d="M445.667 502.333L446.333 502.667L445.667 502.333M115 503L116 504L115 503M444 503L445 504L444 503M116 504L119 506L119 505L116 504z"/>
<path style="fill:#101010; stroke:none;" d="M117 504L118 505L117 504M442 504L443 505L442 504z"/>
<path style="fill:#303030; stroke:none;" d="M443 504L444 505L443 504M441 505L442 506L441 505M119 506L121 508L119 506z"/>
<path style="fill:#101010; stroke:none;" d="M120 506L121 507L120 506z"/>
<path style="fill:#303030; stroke:none;" d="M440 506L441 507L440 506z"/>
<path style="fill:#101010; stroke:none;" d="M121 507L122 508L121 507M438 507L439 508L438 507z"/>
<path style="fill:#303030; stroke:none;" d="M439 507L440 508L439 507M122 508L124 510L122 508z"/>
<path style="fill:#101010; stroke:none;" d="M123 508L124 509L123 508z"/>
<path style="fill:#303030; stroke:none;" d="M437 508L438 509L437 508z"/>
<path style="fill:#101010; stroke:none;" d="M124 509L125 510L124 509M435 509L436 510L435 509z"/>
<path style="fill:#303030; stroke:none;" d="M436 509L437 510L436 509M125 510L127 512L125 510z"/>
<path style="fill:#101010; stroke:none;" d="M126 510L127 511L126 510z"/>
<path style="fill:#303030; stroke:none;" d="M434 510L435 511L434 510z"/>
<path style="fill:#101010; stroke:none;" d="M127 511L128 512L127 511M432 511L433 512L432 511z"/>
<path style="fill:#303030; stroke:none;" d="M433 511L434 512L433 511M128 512L130 514L128 512z"/>
<path style="fill:#101010; stroke:none;" d="M129 512L130 513L129 512z"/>
<path style="fill:#303030; stroke:none;" d="M431 512L432 513L431 512z"/>
<path style="fill:#101010; stroke:none;" d="M130 513L131 514L130 513M429 513L430 514L429 513z"/>
<path style="fill:#303030; stroke:none;" d="M430 513L431 514L430 513M131 514L134 516L134 515L131 514z"/>
<path style="fill:#101010; stroke:none;" d="M132 514L133 515L132 514z"/>
<path style="fill:#303030; stroke:none;" d="M428 514L429 515L428 514M426.667 515.333L427.333 515.667L426.667 515.333M134 516L137 518L137 517L134 516z"/>
<path style="fill:#101010; stroke:none;" d="M135 516L136 517L135 516M424 516L425 517L424 516z"/>
<path style="fill:#303030; stroke:none;" d="M425 516L426 517L425 516M423 517L424 518L423 517M137 518L138 519L137 518z"/>
<path style="fill:#101010; stroke:none;" d="M138 518L139 519L138 518M421 518L422 519L421 518z"/>
<path style="fill:#303030; stroke:none;" d="M422 518L423 519L422 518M139 519L140 520L139 519z"/>
<path style="fill:#101010; stroke:none;" d="M140 519L141 520L140 519M419 519L420 520L419 519z"/>
<path style="fill:#303030; stroke:none;" d="M420 519L421 520L420 519M141 520L142 521L141 520M418 520L419 521L418 520M142.667 521.333L143.333 521.667L142.667 521.333M416.667 521.333L417.333 521.667L416.667 521.333M144 522L145 523L144 522z"/>
<path style="fill:#101010; stroke:none;" d="M145 522L146 523L145 522M414 522L415 523L414 522z"/>
<path style="fill:#303030; stroke:none;" d="M415 522L416 523L415 522M146 523L147 524L146 523z"/>
<path style="fill:#101010; stroke:none;" d="M147 523L148 524L147 523M412 523L413 524L412 523z"/>
<path style="fill:#303030; stroke:none;" d="M413 523L414 524L413 523M148 524L149 525L148 524z"/>
<path style="fill:#101010; stroke:none;" d="M149 524L150 525L149 524M410 524L411 525L410 524z"/>
<path style="fill:#303030; stroke:none;" d="M411 524L412 525L411 524M150 525L150 526L163 532L163 531L150 525z"/>
<path style="fill:#101010; stroke:none;" d="M151 525L152 526L151 525M408 525L409 526L408 525z"/>
<path style="fill:#303030; stroke:none;" d="M409 525L410 526L409 525z"/>
<path style="fill:#101010; stroke:none;" d="M153 526L154 527L153 526M406 526L407 527L406 526z"/>
<path style="fill:#303030; stroke:none;" d="M407 526L408 527L407 526z"/>
<path style="fill:#101010; stroke:none;" d="M155 527L156 528L155 527M404 527L405 528L404 527z"/>
<path style="fill:#303030; stroke:none;" d="M405.667 527.333L406.333 527.667L405.667 527.333z"/>
<path style="fill:#101010; stroke:none;" d="M157 528L158 529L157 528M402 528L403 529L402 528z"/>
<path style="fill:#303030; stroke:none;" d="M403.667 528.333L404.333 528.667L403.667 528.333z"/>
<path style="fill:#101010; stroke:none;" d="M159 529L160 530L159 529M400 529L401 530L400 529z"/>
<path style="fill:#303030; stroke:none;" d="M401.667 529.333L402.333 529.667L401.667 529.333z"/>
<path style="fill:#101010; stroke:none;" d="M161 530L162 531L161 530M398 530L399 531L398 530z"/>
<path style="fill:#303030; stroke:none;" d="M399 530L400 531L399 530z"/>
<path style="fill:#101010; stroke:none;" d="M163 531L164 532L163 531M396 531L397 532L396 531z"/>
<path style="fill:#303030; stroke:none;" d="M397 531L398 532L397 531M164 532L165 533L164 532z"/>
<path style="fill:#101010; stroke:none;" d="M165 532L166 533L165 532M394 532L395 533L394 532z"/>
<path style="fill:#303030; stroke:none;" d="M395 532L396 533L395 532M166 533L167 534L166 533z"/>
<path style="fill:#101010; stroke:none;" d="M167 533L168 534L167 533z"/>
<path style="fill:#303030; stroke:none;" d="M392.667 533.333L393.333 533.667L392.667 533.333M168 534L168 535L172 536L172 535L168 534z"/>
<path style="fill:#101010; stroke:none;" d="M170 534L171 535L170 534M389 534L390 535L389 534z"/>
<path style="fill:#303030; stroke:none;" d="M390.667 534.333L391.333 534.667L390.667 534.333z"/>
<path style="fill:#101010; stroke:none;" d="M172 535L173 536L172 535M387 535L388 536L387 535z"/>
<path style="fill:#303030; stroke:none;" d="M388.667 535.333L389.333 535.667L388.667 535.333M173.667 536.333L174.333 536.667L173.667 536.333M385.667 536.333L386.333 536.667L385.667 536.333M175.667 537.333L176.333 537.667L175.667 537.333z"/>
<path style="fill:#101010; stroke:none;" d="M177 537L178 538L177 537M382 537L383 538L382 537z"/>
<path style="fill:#303030; stroke:none;" d="M383.667 537.333L384.333 537.667L383.667 537.333M178.667 538.333L179.333 538.667L178.667 538.333M380.667 538.333L381.333 538.667L380.667 538.333M180.667 539.333L181.333 539.667L180.667 539.333z"/>
<path style="fill:#101010; stroke:none;" d="M182 539L183 540L182 539M377 539L378 540L377 539z"/>
<path style="fill:#303030; stroke:none;" d="M378.667 539.333L379.333 539.667L378.667 539.333M183 540L183 541L188 542L188 541L183 540z"/>
<path style="fill:#101010; stroke:none;" d="M185 540L186 541L185 540M374 540L375 541L374 540z"/>
<path style="fill:#303030; stroke:none;" d="M375.667 540.333L376.333 540.667L375.667 540.333M372.667 541.333L373.333 541.667L372.667 541.333M188 542L188 543L191 543L188 542M369 542L369 543L372 543L369 542M191 543L191 544L194 544L191 543M366 543L366 544L369 544L366 543M194 544L194 545L197 545L194 544M363 544L363 545L366 545L363 544M197 545L197 546L200 546L197 545z"/>
<path style="fill:#101010; stroke:none;" d="M200 545L201 546L200 545M359 545L360 546L359 545z"/>
<path style="fill:#303030; stroke:none;" d="M360 545L360 546L363 546L360 545M201 546L201 547L204 547L201 546M356 546L356 547L359 547L356 546M204 547L204 548L211 549L211 548L204 547z"/>
<path style="fill:#101010; stroke:none;" d="M207 547L208 548L207 547z"/>
<path style="fill:#303030; stroke:none;" d="M353 547L353 548L356 548L353 547M349 548L349 549L352 549L349 548M211 549L211 550L219 551L211 549z"/>
<path style="fill:#101010; stroke:none;" d="M215 549L216 550L215 549z"/>
<path style="fill:#303030; stroke:none;" d="M345 549L345 550L349 550L345 549z"/>
<path style="fill:#101010; stroke:none;" d="M219 550L220 551L219 550M340 550L341 551L340 550z"/>
<path style="fill:#303030; stroke:none;" d="M341 550L341 551L345 551L341 550M220 551L220 552L224 552L220 551z"/>
<path style="fill:#101010; stroke:none;" d="M224 551L225 552L224 551z"/>
<path style="fill:#303030; stroke:none;" d="M336 551L336 552L340 552L336 551M225 552L225 553L229 553L225 552z"/>
<path style="fill:#101010; stroke:none;" d="M229 552L230 553L229 552M330 552L331 553L330 552z"/>
<path style="fill:#303030; stroke:none;" d="M331 552L331 553L336 553L331 552M230 553L230 554L235 554L230 553M325 553L325 554L330 554L325 553M235 554L235 555L240 555L235 554M320 554L320 555L324 555L320 554M242 555L242 556L246 556L242 555M314 555L314 556L318 556L314 555M250.667 556.333L251.333 556.667L250.667 556.333M308 556L309 557L308 556M249 558L249 559L253 559L249 558z"/>
<path style="fill:#101010; stroke:none;" d="M253 558L253 559L307 559L289 558L253 558z"/>
<path style="fill:#303030; stroke:none;" d="M307 558L307 559L311 559L307 558M260 559L260 560L267 560L260 559M293 559L293 560L300 560L293 559z"/>
</svg>
