<?xml version="1.0" standalone="no"?>
<!DOCTYPE svg PUBLIC "-//W3C//DTD SVG 20010904//EN"
 "http://www.w3.org/TR/2001/REC-SVG-20010904/DTD/svg10.dtd">
<svg version="1.0" xmlns="http://www.w3.org/2000/svg"
 width="450.000000pt" height="450.000000pt" viewBox="0 0 450.000000 450.000000"
 preserveAspectRatio="xMidYMid meet">
<metadata>
Created by potrace 1.16, written by Peter Selinger 2001-2019
</metadata>
<g transform="translate(0.000000,450.000000) scale(0.100000,-0.100000)"
fill="#000000" stroke="none">
<path d="M1338 4361 c-54 -21 -90 -48 -154 -111 -59 -59 -64 -66 -106 -130
-215 -333 -434 -1100 -742 -2600 -144 -703 -216 -1085 -216 -1145 1 -146 100
-245 245 -245 36 0 80 6 99 14 52 22 102 72 126 128 15 33 78 326 170 783 266
1318 410 1921 569 2385 54 159 138 360 151 360 13 0 106 -230 165 -404 78
-235 185 -617 350 -1251 80 -308 148 -567 152 -575 3 -8 8 -24 10 -36 2 -11
19 -74 38 -140 20 -65 38 -128 40 -138 52 -222 264 -795 306 -826 3 -3 9 -15
13 -27 4 -13 12 -23 17 -23 5 0 9 -6 9 -12 1 -28 97 -132 164 -178 67 -45 123
-60 229 -60 79 0 97 4 152 30 78 37 235 190 235 229 0 6 4 11 9 11 5 0 13 10
17 23 4 12 10 24 13 27 12 8 68 122 105 212 44 107 137 378 129 378 -3 0 -1 6
5 13 58 71 532 2100 532 2276 -1 104 -49 183 -139 228 -48 24 -173 24 -217 0
-47 -25 -95 -76 -117 -125 -10 -25 -64 -252 -118 -506 -247 -1151 -402 -1736
-551 -2086 -62 -147 -59 -146 -103 -43 -92 220 -209 604 -365 1198 -44 171
-96 369 -115 440 -189 722 -306 1121 -386 1313 -5 12 -13 33 -19 47 -5 14 -14
36 -20 50 -55 137 -133 290 -165 322 -8 8 -15 18 -15 23 0 23 -121 126 -184
156 -65 32 -76 34 -170 34 -73 -1 -114 -6 -148 -19z"/>
<path d="M4015 4350 c-100 -48 -141 -123 -185 -341 -31 -147 -19 -211 54 -287
114 -122 310 -96 391 51 29 52 70 198 89 318 16 97 -40 203 -133 251 -66 35
-154 38 -216 8z"/>
</g>
</svg>
